# Blender v2.83.0 OBJ File: ''
# www.blender.org
mtllib sphere.mtl
o Cube
v -0.723607 0.447220 0.525725
v 0.276388 0.447220 0.850649
v 0.723607 -0.447220 -0.525725
v -0.276388 -0.447220 -0.850649
v -0.894426 -0.447216 0.000000
v -0.276388 -0.447220 0.850649
v 0.723607 -0.447220 0.525725
v 0.000000 -1.000000 0.000000
v -0.723607 0.447220 -0.525725
v 0.276388 0.447220 -0.850649
v 0.894426 0.447216 0.000000
v 0.000000 1.000000 0.000000
v 0.262869 -0.525738 0.809012
v 0.587786 0.000000 0.809017
v -0.951058 0.000000 -0.309013
v -0.162456 -0.850654 0.499995
v 0.262869 -0.525738 -0.809012
v 0.425323 -0.850654 -0.309011
v -0.688189 -0.525736 -0.499997
v -0.587786 0.000000 -0.809017
v -0.525730 -0.850652 0.000000
v 0.850648 -0.525736 0.000000
v -0.587786 0.000000 0.809017
v 0.000000 0.000000 1.000000
v -0.162456 -0.850654 -0.499995
v -0.688189 -0.525736 0.499997
v 0.425323 -0.850654 0.309011
v 0.951058 0.000000 -0.309013
v -0.951058 0.000000 0.309013
v 0.951058 0.000000 0.309013
v 0.587786 0.000000 -0.809017
v 0.000000 0.000000 -1.000000
v 0.688189 0.525736 0.499997
v -0.262869 0.525738 0.809012
v -0.850648 0.525736 0.000000
v -0.262869 0.525738 -0.809012
v 0.688189 0.525736 -0.499997
v 0.162456 0.850654 0.499995
v 0.525730 0.850652 0.000000
v -0.425323 0.850654 0.309011
v -0.425323 0.850654 -0.309011
v 0.162456 0.850654 -0.499995
vt 0.363636 0.157461
vt 0.272727 0.157461
vt 0.318182 0.236191
vt 0.454545 0.000000
vt 0.409090 0.078731
vt 0.500000 0.078731
vt 0.818181 0.000000
vt 0.772726 0.078731
vt 0.863635 0.078731
vt 0.909090 0.157461
vt 0.818181 0.157461
vt 0.863635 0.236191
vt 0.727272 0.157461
vt 0.681818 0.236191
vt 0.772726 0.236191
vt 0.181818 0.157461
vt 0.090909 0.157461
vt 0.136363 0.236191
vt 0.090909 0.000000
vt 0.045454 0.078731
vt 0.136363 0.078731
vt 0.272727 0.000000
vt 0.227273 0.078731
vt 0.318182 0.078731
vt 0.681818 0.078731
vt 0.636363 0.157461
vt 0.545454 0.157461
vt 0.454545 0.157461
vt 0.500000 0.236191
vt 0.954545 0.236191
vt 0.227273 0.236191
vt 0.409090 0.236191
vt 0.590909 0.236191
vt 0.818181 0.314921
vt 0.727272 0.314921
vt 0.772726 0.393651
vt 1.000000 0.314921
vt 0.909091 0.314921
vt 0.954545 0.393651
vt 0.272727 0.314921
vt 0.181818 0.314921
vt 0.227273 0.393651
vt 0.454545 0.314921
vt 0.363636 0.314921
vt 0.409090 0.393651
vt 0.636363 0.314921
vt 0.545454 0.314921
vt 0.590909 0.393651
vt 0.500000 0.393651
vt 0.545454 0.472382
vt 0.318182 0.393651
vt 0.363636 0.472382
vt 0.136363 0.393651
vt 0.181818 0.472382
vt 0.090909 0.314921
vt 0.863635 0.393651
vt 0.909090 0.472382
vt 0.681818 0.393651
vt 0.727272 0.472382
vt 0.590909 0.078731
vt 0.636363 0.000000
vt 0.000000 0.157461
vt 0.045454 0.236191
vn -0.5746 -0.3304 -0.7488
vn 0.1024 -0.9435 -0.3151
vn 0.1024 -0.9435 0.3151
vn 0.0247 -0.3304 0.9435
vn 0.8026 -0.1256 0.5831
vn -0.8897 -0.3304 0.3151
vn -0.2680 -0.9435 0.1947
vn -0.2680 -0.9435 -0.1947
vn 0.7002 -0.6617 0.2680
vn 0.9050 -0.3304 0.2680
vn 0.5346 -0.3304 -0.7779
vn -0.3066 -0.1256 0.9435
vn -0.9921 -0.1256 0.0000
vn -0.3066 -0.1256 -0.9435
vn 0.8026 -0.1256 -0.5831
vn 0.4089 0.6617 0.6284
vn -0.4713 0.6617 0.5831
vn -0.7002 0.6617 -0.2680
vn 0.0385 0.6617 -0.7488
vn 0.7240 0.6617 -0.1947
vn 0.2680 0.9435 -0.1947
vn 0.4911 0.7947 -0.3568
vn 0.4089 0.6617 -0.6284
vn -0.1024 0.9435 -0.3151
vn -0.1876 0.7947 -0.5773
vn -0.4713 0.6617 -0.5831
vn -0.3313 0.9435 0.0000
vn -0.6071 0.7947 0.0000
vn -0.7002 0.6617 0.2680
vn -0.1024 0.9435 0.3151
vn -0.1876 0.7947 0.5773
vn 0.0385 0.6617 0.7488
vn 0.2680 0.9435 0.1947
vn 0.4911 0.7947 0.3568
vn 0.7240 0.6617 0.1947
vn 0.8897 0.3304 -0.3151
vn 0.7947 0.1876 -0.5773
vn 0.5746 0.3304 -0.7488
vn -0.0247 0.3304 -0.9435
vn -0.3035 0.1876 -0.9342
vn -0.5346 0.3304 -0.7779
vn -0.9050 0.3304 -0.2680
vn -0.9822 0.1876 0.0000
vn -0.9050 0.3304 0.2680
vn -0.5346 0.3304 0.7779
vn -0.3035 0.1876 0.9342
vn -0.0247 0.3304 0.9435
vn 0.3066 0.1256 -0.9435
vn 0.3035 -0.1876 -0.9342
vn 0.0247 -0.3304 -0.9435
vn 0.9921 0.1256 0.0000
vn 0.9822 -0.1876 0.0000
vn 0.9050 -0.3304 -0.2680
vn 0.7002 -0.6617 -0.2680
vn 0.6071 -0.7947 0.0000
vn 0.3313 -0.9435 0.0000
vn -0.4089 -0.6617 -0.6284
vn -0.4911 -0.7947 -0.3568
vn -0.7240 -0.6617 -0.1947
vn -0.7240 -0.6617 0.1947
vn -0.4911 -0.7947 0.3568
vn -0.4089 -0.6617 0.6284
vn -0.8026 0.1256 0.5831
vn -0.7947 -0.1876 0.5773
vn -0.5746 -0.3304 0.7488
vn 0.5746 0.3304 0.7488
vn 0.7947 0.1876 0.5773
vn 0.8897 0.3304 0.3151
vn 0.3066 0.1256 0.9435
vn 0.3035 -0.1876 0.9342
vn 0.5346 -0.3304 0.7779
vn -0.0385 -0.6617 0.7488
vn 0.1876 -0.7947 0.5773
vn 0.4713 -0.6617 0.5831
vn 0.4713 -0.6617 -0.5831
vn 0.1876 -0.7947 -0.5773
vn -0.0385 -0.6617 -0.7488
vn -0.8026 0.1256 -0.5831
vn -0.7947 -0.1876 -0.5773
vn -0.8897 -0.3304 -0.3151
usemtl Material
s off
f 4/1/1 19/2/1 20/3/1
f 8/4/2 25/5/2 18/6/2
f 8/7/3 27/8/3 16/9/3
f 6/10/4 13/11/4 24/12/4
f 7/13/5 30/14/5 14/15/5
f 5/16/6 26/17/6 29/18/6
f 8/19/7 16/20/7 21/21/7
f 8/22/8 21/23/8 25/24/8
f 7/13/9 27/25/9 22/26/9
f 7/13/10 22/26/10 30/14/10
f 3/27/11 17/28/11 31/29/11
f 6/10/12 24/12/12 23/30/12
f 5/16/13 29/18/13 15/31/13
f 4/1/14 20/3/14 32/32/14
f 3/27/15 31/29/15 28/33/15
f 2/34/16 33/35/16 38/36/16
f 1/37/17 34/38/17 40/39/17
f 9/40/18 35/41/18 41/42/18
f 10/43/19 36/44/19 42/45/19
f 11/46/20 37/47/20 39/48/20
f 39/48/21 42/49/21 12/50/21
f 39/48/22 37/47/22 42/49/22
f 37/47/23 10/43/23 42/49/23
f 42/45/24 41/51/24 12/52/24
f 42/45/25 36/44/25 41/51/25
f 36/44/26 9/40/26 41/51/26
f 41/42/27 40/53/27 12/54/27
f 41/42/28 35/41/28 40/53/28
f 35/41/29 1/55/29 40/53/29
f 40/39/30 38/56/30 12/57/30
f 40/39/31 34/38/31 38/56/31
f 34/38/32 2/34/32 38/56/32
f 38/36/33 39/58/33 12/59/33
f 38/36/34 33/35/34 39/58/34
f 33/35/35 11/46/35 39/58/35
f 28/33/36 37/47/36 11/46/36
f 28/33/37 31/29/37 37/47/37
f 31/29/38 10/43/38 37/47/38
f 32/32/39 36/44/39 10/43/39
f 32/32/40 20/3/40 36/44/40
f 20/3/41 9/40/41 36/44/41
f 15/31/42 35/41/42 9/40/42
f 15/31/43 29/18/43 35/41/43
f 29/18/44 1/55/44 35/41/44
f 23/30/45 34/38/45 1/37/45
f 23/30/46 24/12/46 34/38/46
f 24/12/47 2/34/47 34/38/47
f 31/29/48 32/32/48 10/43/48
f 31/29/49 17/28/49 32/32/49
f 17/28/50 4/1/50 32/32/50
f 30/14/51 28/33/51 11/46/51
f 30/14/52 22/26/52 28/33/52
f 22/26/53 3/27/53 28/33/53
f 22/26/54 18/60/54 3/27/54
f 22/26/55 27/25/55 18/60/55
f 27/25/56 8/61/56 18/60/56
f 25/24/57 19/2/57 4/1/57
f 25/24/58 21/23/58 19/2/58
f 21/23/59 5/16/59 19/2/59
f 21/21/60 26/17/60 5/16/60
f 21/21/61 16/20/61 26/17/61
f 16/20/62 6/62/62 26/17/62
f 29/18/63 23/63/63 1/55/63
f 29/18/64 26/17/64 23/63/64
f 26/17/65 6/62/65 23/63/65
f 14/15/66 33/35/66 2/34/66
f 14/15/67 30/14/67 33/35/67
f 30/14/68 11/46/68 33/35/68
f 24/12/69 14/15/69 2/34/69
f 24/12/70 13/11/70 14/15/70
f 13/11/71 7/13/71 14/15/71
f 16/9/72 13/11/72 6/10/72
f 16/9/73 27/8/73 13/11/73
f 27/8/74 7/13/74 13/11/74
f 18/6/75 17/28/75 3/27/75
f 18/6/76 25/5/76 17/28/76
f 25/5/77 4/1/77 17/28/77
f 20/3/78 15/31/78 9/40/78
f 20/3/79 19/2/79 15/31/79
f 19/2/80 5/16/80 15/31/80
