# Blender v2.83.0 OBJ File: ''
# www.blender.org
o Torus.001
v 0.000000000000 1.000000000000 0.000000000000
v 0.000000000000 0.966506361961 0.125000000000
v 0.000000000000 0.875000000000 0.216506347060
v 0.000000000000 0.750000000000 0.250000000000
v 0.000000000000 0.625000000000 0.216506347060
v 0.000000000000 0.533493638039 0.125000000000
v 0.000000000000 0.500000000000 0.000000000000
v 0.000000000000 0.533493638039 -0.125000000000
v 0.000000000000 0.625000000000 -0.216506347060
v 0.000000000000 0.750000000000 -0.250000000000
v 0.000000000000 0.875000000000 -0.216506347060
v 0.000000000000 0.966506361961 -0.125000000000
v -0.500000119209 0.866025328636 0.000000000000
v -0.483253300190 0.837018966675 0.125000000000
v -0.437500119209 0.757772147655 0.216506347060
v -0.375000089407 0.649518966675 0.250000000000
v -0.312500059605 0.541265845299 0.216506347060
v -0.266746878624 0.462018996477 0.125000000000
v -0.250000059605 0.433012664318 0.000000000000
v -0.266746878624 0.462018996477 -0.125000000000
v -0.312500059605 0.541265845299 -0.216506347060
v -0.375000089407 0.649518966675 -0.250000000000
v -0.437500119209 0.757772147655 -0.216506347060
v -0.483253300190 0.837018966675 -0.125000000000
v -0.866025447845 0.499999970198 0.000000000000
v -0.837019085884 0.483253151178 0.125000000000
v -0.757772266865 0.437499970198 0.216506347060
v -0.649519085884 0.374999970198 0.250000000000
v -0.541265904903 0.312499970198 0.216506347060
v -0.462019056082 0.266746789217 0.125000000000
v -0.433012723923 0.249999985099 0.000000000000
v -0.462019056082 0.266746789217 -0.125000000000
v -0.541265904903 0.312499970198 -0.216506347060
v -0.649519085884 0.374999970198 -0.250000000000
v -0.757772266865 0.437499970198 -0.216506347060
v -0.837019085884 0.483253151178 -0.125000000000
v -1.000000000000 0.000000075498 0.000000000000
v -0.966506361961 0.000000072969 0.125000000000
v -0.875000000000 0.000000066061 0.216506347060
v -0.750000000000 0.000000056623 0.250000000000
v -0.625000000000 0.000000047186 0.216506347060
v -0.533493638039 0.000000040278 0.125000000000
v -0.500000000000 0.000000037749 0.000000000000
v -0.533493638039 0.000000040278 -0.125000000000
v -0.625000000000 0.000000047186 -0.216506347060
v -0.750000000000 0.000000056623 -0.250000000000
v -0.875000000000 0.000000066061 -0.216506347060
v -0.966506361961 0.000000072969 -0.125000000000
v -0.866025507450 -0.499999850988 0.000000000000
v -0.837019145489 -0.483253031969 0.125000000000
v -0.757772326469 -0.437499880791 0.216506347060
v -0.649519145489 -0.374999880791 0.250000000000
v -0.541265964508 -0.312499910593 0.216506347060
v -0.462019085884 -0.266746729612 0.125000000000
v -0.433012753725 -0.249999925494 0.000000000000
v -0.462019085884 -0.266746729612 -0.125000000000
v -0.541265964508 -0.312499910593 -0.216506347060
v -0.649519145489 -0.374999880791 -0.250000000000
v -0.757772326469 -0.437499880791 -0.216506347060
v -0.837019145489 -0.483253031969 -0.125000000000
v -0.500000238419 -0.866025269032 0.000000000000
v -0.483253419399 -0.837018907070 0.125000000000
v -0.437500208616 -0.757772088051 0.216506347060
v -0.375000178814 -0.649518966675 0.250000000000
v -0.312500149012 -0.541265785694 0.216506347060
v -0.266746938229 -0.462018966675 0.125000000000
v -0.250000119209 -0.433012634516 0.000000000000
v -0.266746938229 -0.462018966675 -0.125000000000
v -0.312500149012 -0.541265785694 -0.216506347060
v -0.375000178814 -0.649518966675 -0.250000000000
v -0.437500208616 -0.757772088051 -0.216506347060
v -0.483253419399 -0.837018907070 -0.125000000000
v -0.000000087423 -1.000000000000 0.000000000000
v -0.000000084495 -0.966506361961 0.125000000000
v -0.000000076495 -0.875000000000 0.216506347060
v -0.000000065567 -0.750000000000 0.250000000000
v -0.000000054639 -0.625000000000 0.216506347060
v -0.000000046639 -0.533493638039 0.125000000000
v -0.000000043711 -0.500000000000 0.000000000000
v -0.000000046639 -0.533493638039 -0.125000000000
v -0.000000054639 -0.625000000000 -0.216506347060
v -0.000000065567 -0.750000000000 -0.250000000000
v -0.000000076495 -0.875000000000 -0.216506347060
v -0.000000084495 -0.966506361961 -0.125000000000
v 0.499999821186 -0.866025507450 0.000000000000
v 0.483253002167 -0.837019145489 0.125000000000
v 0.437499850988 -0.757772326469 0.216506347060
v 0.374999880791 -0.649519145489 0.250000000000
v 0.312499880791 -0.541265964508 0.216506347060
v 0.266746729612 -0.462019085884 0.125000000000
v 0.249999910593 -0.433012753725 0.000000000000
v 0.266746729612 -0.462019085884 -0.125000000000
v 0.312499880791 -0.541265964508 -0.216506347060
v 0.374999880791 -0.649519145489 -0.250000000000
v 0.437499850988 -0.757772326469 -0.216506347060
v 0.483253002167 -0.837019145489 -0.125000000000
v 0.866025507450 -0.499999850988 0.000000000000
v 0.837019145489 -0.483253031969 0.125000000000
v 0.757772326469 -0.437499880791 0.216506347060
v 0.649519145489 -0.374999880791 0.250000000000
v 0.541265964508 -0.312499910593 0.216506347060
v 0.462019085884 -0.266746729612 0.125000000000
v 0.433012753725 -0.249999925494 0.000000000000
v 0.462019085884 -0.266746729612 -0.125000000000
v 0.541265964508 -0.312499910593 -0.216506347060
v 0.649519145489 -0.374999880791 -0.250000000000
v 0.757772326469 -0.437499880791 -0.216506347060
v 0.837019145489 -0.483253031969 -0.125000000000
v 1.000000000000 0.000000075498 0.000000000000
v 0.966506361961 0.000000072969 0.125000000000
v 0.875000000000 0.000000066061 0.216506347060
v 0.750000000000 0.000000056623 0.250000000000
v 0.625000000000 0.000000047186 0.216506347060
v 0.533493638039 0.000000040278 0.125000000000
v 0.500000000000 0.000000037749 0.000000000000
v 0.533493638039 0.000000040278 -0.125000000000
v 0.625000000000 0.000000047186 -0.216506347060
v 0.750000000000 0.000000056623 -0.250000000000
v 0.875000000000 0.000000066061 -0.216506347060
v 0.966506361961 0.000000072969 -0.125000000000
v 0.866025447845 0.499999970198 0.000000000000
v 0.837019085884 0.483253151178 0.125000000000
v 0.757772266865 0.437499970198 0.216506347060
v 0.649519085884 0.374999970198 0.250000000000
v 0.541265904903 0.312499970198 0.216506347060
v 0.462019056082 0.266746789217 0.125000000000
v 0.433012723923 0.249999985099 0.000000000000
v 0.462019056082 0.266746789217 -0.125000000000
v 0.541265904903 0.312499970198 -0.216506347060
v 0.649519085884 0.374999970198 -0.250000000000
v 0.757772266865 0.437499970198 -0.216506347060
v 0.837019085884 0.483253151178 -0.125000000000
v 0.500000119209 0.866025328636 0.000000000000
v 0.483253300190 0.837018966675 0.125000000000
v 0.437500119209 0.757772147655 0.216506347060
v 0.375000089407 0.649518966675 0.250000000000
v 0.312500059605 0.541265845299 0.216506347060
v 0.266746878624 0.462018996477 0.125000000000
v 0.250000059605 0.433012664318 0.000000000000
v 0.266746878624 0.462018996477 -0.125000000000
v 0.312500059605 0.541265845299 -0.216506347060
v 0.375000089407 0.649518966675 -0.250000000000
v 0.437500119209 0.757772147655 -0.216506347060
v 0.483253300190 0.837018966675 -0.125000000000
vn 0.0000 1.0000 0.0000
vn -0.5000 0.8660 0.0000
vn -0.4380 0.7586 0.4823
vn 0.0000 0.8760 0.4823
vn -0.2654 0.4598 0.8474
vn 0.0000 0.5309 0.8474
vn -0.0215 0.0373 0.9991
vn 0.0000 0.0431 0.9991
vn 0.2332 -0.4039 0.8846
vn 0.0000 -0.4663 0.8846
vn 0.4272 -0.7400 0.5194
vn 0.0000 -0.8545 0.5194
vn 0.5000 -0.8660 0.0000
vn 0.0000 -1.0000 0.0000
vn 0.4272 -0.7400 -0.5194
vn 0.0000 -0.8545 -0.5194
vn 0.2332 -0.4039 -0.8846
vn 0.0000 -0.4663 -0.8846
vn -0.0215 0.0373 -0.9991
vn 0.0000 0.0431 -0.9991
vn -0.2654 0.4598 -0.8474
vn 0.0000 0.5309 -0.8474
vn -0.4380 0.7586 -0.4823
vn 0.0000 0.8760 -0.4823
vn -0.8660 0.5000 0.0000
vn -0.7586 0.4380 0.4823
vn -0.4598 0.2654 0.8474
vn -0.0373 0.0215 0.9991
vn 0.4039 -0.2332 0.8846
vn 0.7400 -0.4272 0.5194
vn 0.8660 -0.5000 0.0000
vn 0.7400 -0.4272 -0.5194
vn 0.4039 -0.2332 -0.8846
vn -0.0373 0.0215 -0.9991
vn -0.4598 0.2654 -0.8474
vn -0.7586 0.4380 -0.4823
vn -1.0000 0.0000 0.0000
vn -0.8760 0.0000 0.4823
vn -0.5309 0.0000 0.8474
vn -0.0431 0.0000 0.9991
vn 0.4663 0.0000 0.8846
vn 0.8545 0.0000 0.5194
vn 1.0000 0.0000 0.0000
vn 0.8545 0.0000 -0.5194
vn 0.4663 0.0000 -0.8846
vn -0.0431 0.0000 -0.9991
vn -0.5309 0.0000 -0.8474
vn -0.8760 0.0000 -0.4823
vn -0.8660 -0.5000 0.0000
vn -0.7586 -0.4380 0.4823
vn -0.4598 -0.2654 0.8474
vn -0.0373 -0.0215 0.9991
vn 0.4039 0.2332 0.8846
vn 0.7400 0.4272 0.5194
vn 0.8660 0.5000 0.0000
vn 0.7400 0.4272 -0.5194
vn 0.4039 0.2332 -0.8846
vn -0.0373 -0.0215 -0.9991
vn -0.4598 -0.2654 -0.8474
vn -0.7586 -0.4380 -0.4823
vn -0.5000 -0.8660 0.0000
vn -0.4380 -0.7586 0.4823
vn -0.2655 -0.4598 0.8474
vn -0.0215 -0.0373 0.9991
vn 0.2332 0.4039 0.8846
vn 0.4272 0.7400 0.5194
vn 0.5000 0.8660 0.0000
vn 0.4272 0.7400 -0.5194
vn 0.2332 0.4039 -0.8846
vn -0.0215 -0.0373 -0.9991
vn -0.2655 -0.4598 -0.8474
vn -0.4380 -0.7586 -0.4823
vn 0.0000 -0.8760 0.4823
vn 0.0000 -0.5309 0.8474
vn 0.0000 -0.0431 0.9991
vn 0.0000 0.4663 0.8846
vn 0.0000 0.8545 0.5194
vn 0.0000 0.8545 -0.5194
vn 0.0000 0.4663 -0.8846
vn 0.0000 -0.0431 -0.9991
vn 0.0000 -0.5309 -0.8474
vn 0.0000 -0.8760 -0.4823
vn 0.4380 -0.7586 0.4823
vn 0.2654 -0.4598 0.8474
vn 0.0215 -0.0373 0.9991
vn -0.2332 0.4039 0.8846
vn -0.4272 0.7400 0.5194
vn -0.4272 0.7400 -0.5194
vn -0.2332 0.4039 -0.8846
vn 0.0215 -0.0373 -0.9991
vn 0.2654 -0.4598 -0.8474
vn 0.4380 -0.7586 -0.4823
vn 0.7586 -0.4380 0.4823
vn 0.4598 -0.2654 0.8474
vn 0.0373 -0.0215 0.9991
vn -0.4039 0.2332 0.8846
vn -0.7400 0.4272 0.5194
vn -0.7400 0.4272 -0.5194
vn -0.4039 0.2332 -0.8846
vn 0.0373 -0.0215 -0.9991
vn 0.4598 -0.2654 -0.8474
vn 0.7586 -0.4380 -0.4823
vn 0.8760 0.0000 0.4823
vn 0.5309 0.0000 0.8474
vn 0.0431 0.0000 0.9991
vn -0.4663 0.0000 0.8846
vn -0.8545 0.0000 0.5194
vn -0.8545 0.0000 -0.5194
vn -0.4663 0.0000 -0.8846
vn 0.0431 0.0000 -0.9991
vn 0.5309 0.0000 -0.8474
vn 0.8760 0.0000 -0.4823
vn 0.7586 0.4380 0.4823
vn 0.4598 0.2654 0.8474
vn 0.0373 0.0215 0.9991
vn -0.4039 -0.2332 0.8846
vn -0.7400 -0.4272 0.5194
vn -0.7400 -0.4272 -0.5194
vn -0.4039 -0.2332 -0.8846
vn 0.0373 0.0215 -0.9991
vn 0.4598 0.2654 -0.8474
vn 0.7586 0.4380 -0.4823
vn 0.4380 0.7586 0.4823
vn 0.2654 0.4598 0.8474
vn 0.0215 0.0373 0.9991
vn -0.2332 -0.4039 0.8846
vn -0.4272 -0.7400 0.5194
vn -0.4272 -0.7400 -0.5194
vn -0.2332 -0.4039 -0.8846
vn 0.0215 0.0373 -0.9991
vn 0.2654 0.4598 -0.8474
vn 0.4380 0.7586 -0.4823
s 1
f 1//1 13//2 14//3 2//4
f 2//4 14//3 15//5 3//6
f 3//6 15//5 16//7 4//8
f 4//8 16//7 17//9 5//10
f 5//10 17//9 18//11 6//12
f 6//12 18//11 19//13 7//14
f 7//14 19//13 20//15 8//16
f 8//16 20//15 21//17 9//18
f 9//18 21//17 22//19 10//20
f 10//20 22//19 23//21 11//22
f 11//22 23//21 24//23 12//24
f 12//24 24//23 13//2 1//1
f 13//2 25//25 26//26 14//3
f 14//3 26//26 27//27 15//5
f 15//5 27//27 28//28 16//7
f 16//7 28//28 29//29 17//9
f 17//9 29//29 30//30 18//11
f 18//11 30//30 31//31 19//13
f 19//13 31//31 32//32 20//15
f 20//15 32//32 33//33 21//17
f 21//17 33//33 34//34 22//19
f 22//19 34//34 35//35 23//21
f 23//21 35//35 36//36 24//23
f 24//23 36//36 25//25 13//2
f 25//25 37//37 38//38 26//26
f 26//26 38//38 39//39 27//27
f 27//27 39//39 40//40 28//28
f 28//28 40//40 41//41 29//29
f 29//29 41//41 42//42 30//30
f 30//30 42//42 43//43 31//31
f 31//31 43//43 44//44 32//32
f 32//32 44//44 45//45 33//33
f 33//33 45//45 46//46 34//34
f 34//34 46//46 47//47 35//35
f 35//35 47//47 48//48 36//36
f 36//36 48//48 37//37 25//25
f 37//37 49//49 50//50 38//38
f 38//38 50//50 51//51 39//39
f 39//39 51//51 52//52 40//40
f 40//40 52//52 53//53 41//41
f 41//41 53//53 54//54 42//42
f 42//42 54//54 55//55 43//43
f 43//43 55//55 56//56 44//44
f 44//44 56//56 57//57 45//45
f 45//45 57//57 58//58 46//46
f 46//46 58//58 59//59 47//47
f 47//47 59//59 60//60 48//48
f 48//48 60//60 49//49 37//37
f 49//49 61//61 62//62 50//50
f 50//50 62//62 63//63 51//51
f 51//51 63//63 64//64 52//52
f 52//52 64//64 65//65 53//53
f 53//53 65//65 66//66 54//54
f 54//54 66//66 67//67 55//55
f 55//55 67//67 68//68 56//56
f 56//56 68//68 69//69 57//57
f 57//57 69//69 70//70 58//58
f 58//58 70//70 71//71 59//59
f 59//59 71//71 72//72 60//60
f 60//60 72//72 61//61 49//49
f 61//61 73//14 74//73 62//62
f 62//62 74//73 75//74 63//63
f 63//63 75//74 76//75 64//64
f 64//64 76//75 77//76 65//65
f 65//65 77//76 78//77 66//66
f 66//66 78//77 79//1 67//67
f 67//67 79//1 80//78 68//68
f 68//68 80//78 81//79 69//69
f 69//69 81//79 82//80 70//70
f 70//70 82//80 83//81 71//71
f 71//71 83//81 84//82 72//72
f 72//72 84//82 73//14 61//61
f 73//14 85//13 86//83 74//73
f 74//73 86//83 87//84 75//74
f 75//74 87//84 88//85 76//75
f 76//75 88//85 89//86 77//76
f 77//76 89//86 90//87 78//77
f 78//77 90//87 91//2 79//1
f 79//1 91//2 92//88 80//78
f 80//78 92//88 93//89 81//79
f 81//79 93//89 94//90 82//80
f 82//80 94//90 95//91 83//81
f 83//81 95//91 96//92 84//82
f 84//82 96//92 85//13 73//14
f 85//13 97//31 98//93 86//83
f 86//83 98//93 99//94 87//84
f 87//84 99//94 100//95 88//85
f 88//85 100//95 101//96 89//86
f 89//86 101//96 102//97 90//87
f 90//87 102//97 103//25 91//2
f 91//2 103//25 104//98 92//88
f 92//88 104//98 105//99 93//89
f 93//89 105//99 106//100 94//90
f 94//90 106//100 107//101 95//91
f 95//91 107//101 108//102 96//92
f 96//92 108//102 97//31 85//13
f 97//31 109//43 110//103 98//93
f 98//93 110//103 111//104 99//94
f 99//94 111//104 112//105 100//95
f 100//95 112//105 113//106 101//96
f 101//96 113//106 114//107 102//97
f 102//97 114//107 115//37 103//25
f 103//25 115//37 116//108 104//98
f 104//98 116//108 117//109 105//99
f 105//99 117//109 118//110 106//100
f 106//100 118//110 119//111 107//101
f 107//101 119//111 120//112 108//102
f 108//102 120//112 109//43 97//31
f 109//43 121//55 122//113 110//103
f 110//103 122//113 123//114 111//104
f 111//104 123//114 124//115 112//105
f 112//105 124//115 125//116 113//106
f 113//106 125//116 126//117 114//107
f 114//107 126//117 127//49 115//37
f 115//37 127//49 128//118 116//108
f 116//108 128//118 129//119 117//109
f 117//109 129//119 130//120 118//110
f 118//110 130//120 131//121 119//111
f 119//111 131//121 132//122 120//112
f 120//112 132//122 121//55 109//43
f 121//55 133//67 134//123 122//113
f 122//113 134//123 135//124 123//114
f 123//114 135//124 136//125 124//115
f 124//115 136//125 137//126 125//116
f 125//116 137//126 138//127 126//117
f 126//117 138//127 139//61 127//49
f 127//49 139//61 140//128 128//118
f 128//118 140//128 141//129 129//119
f 129//119 141//129 142//130 130//120
f 130//120 142//130 143//131 131//121
f 131//121 143//131 144//132 132//122
f 132//122 144//132 133//67 121//55
f 133//67 1//1 2//4 134//123
f 134//123 2//4 3//6 135//124
f 135//124 3//6 4//8 136//125
f 136//125 4//8 5//10 137//126
f 137//126 5//10 6//12 138//127
f 138//127 6//12 7//14 139//61
f 139//61 7//14 8//16 140//128
f 140//128 8//16 9//18 141//129
f 141//129 9//18 10//20 142//130
f 142//130 10//20 11//22 143//131
f 143//131 11//22 12//24 144//132
f 144//132 12//24 1//1 133//67
