# Blender v2.83.0 OBJ File: ''
# www.blender.org
mtllib torus.mtl
o Torus.001
v 0.000000000000 1.000000000000 0.000000043711
v -0.500000119209 0.866025328636 0.000000037855
v -0.483253300190 0.837018966675 0.125000029802
v 0.000000000000 0.966506361961 0.125000044703
v -0.437500119209 0.757772147655 0.216506376863
v 0.000000000000 0.875000000000 0.216506391764
v -0.375000089407 0.649518966675 0.250000029802
v 0.000000000000 0.750000000000 0.250000029802
v -0.312500059605 0.541265845299 0.216506376863
v 0.000000000000 0.625000000000 0.216506376863
v -0.266746878624 0.462018996477 0.125000014901
v 0.000000000000 0.533493638039 0.125000029802
v -0.250000059605 0.433012664318 0.000000018928
v 0.000000000000 0.500000000000 0.000000021856
v -0.266746878624 0.462018996477 -0.124999977648
v 0.000000000000 0.533493638039 -0.124999977648
v -0.312500059605 0.541265845299 -0.216506317258
v 0.000000000000 0.625000000000 -0.216506317258
v -0.375000089407 0.649518966675 -0.249999970198
v 0.000000000000 0.750000000000 -0.249999970198
v -0.437500119209 0.757772147655 -0.216506317258
v 0.000000000000 0.875000000000 -0.216506302357
v -0.483253300190 0.837018966675 -0.124999962747
v 0.000000000000 0.966506361961 -0.124999955297
v -0.866025447845 0.499999970198 0.000000021856
v -0.837019085884 0.483253151178 0.125000014901
v -0.757772266865 0.437499970198 0.216506361961
v -0.649519085884 0.374999970198 0.250000029802
v -0.541265904903 0.312499970198 0.216506361961
v -0.462019056082 0.266746789217 0.125000014901
v -0.433012723923 0.249999985099 0.000000010928
v -0.462019056082 0.266746789217 -0.124999985099
v -0.541265904903 0.312499970198 -0.216506332159
v -0.649519085884 0.374999970198 -0.249999985099
v -0.757772266865 0.437499970198 -0.216506332159
v -0.837019085884 0.483253151178 -0.124999977648
v -1.000000000000 0.000000075498 0.000000000000
v -0.966506361961 0.000000067505 0.125000000000
v -0.875000000000 0.000000056597 0.216506347060
v -0.750000000000 0.000000045695 0.250000000000
v -0.625000000000 0.000000037722 0.216506347060
v -0.533493638039 0.000000034814 0.125000000000
v -0.500000000000 0.000000037749 0.000000000000
v -0.533493638039 0.000000045742 -0.125000000000
v -0.625000000000 0.000000056650 -0.216506347060
v -0.750000000000 0.000000067551 -0.250000000000
v -0.875000000000 0.000000075525 -0.216506347060
v -0.966506361961 0.000000078433 -0.125000000000
v -0.866025507450 -0.499999850988 -0.000000021856
v -0.837019145489 -0.483253031969 0.124999977648
v -0.757772326469 -0.437499880791 0.216506332159
v -0.649519145489 -0.374999880791 0.249999985099
v -0.541265964508 -0.312499910593 0.216506332159
v -0.462019085884 -0.266746729612 0.124999985099
v -0.433012753725 -0.249999925494 -0.000000010928
v -0.462019085884 -0.266746729612 -0.125000014901
v -0.541265964508 -0.312499910593 -0.216506361961
v -0.649519145489 -0.374999880791 -0.250000029802
v -0.757772326469 -0.437499880791 -0.216506361961
v -0.837019145489 -0.483253031969 -0.125000014901
v -0.500000238419 -0.866025269032 -0.000000037855
v -0.483253419399 -0.837018907070 0.124999962747
v -0.437500208616 -0.757772088051 0.216506317258
v -0.375000178814 -0.649518966675 0.249999970198
v -0.312500149012 -0.541265785694 0.216506317258
v -0.266746938229 -0.462018966675 0.124999977648
v -0.250000119209 -0.433012634516 -0.000000018928
v -0.266746938229 -0.462018966675 -0.125000014901
v -0.312500149012 -0.541265785694 -0.216506376863
v -0.375000178814 -0.649518966675 -0.250000029802
v -0.437500208616 -0.757772088051 -0.216506376863
v -0.483253419399 -0.837018907070 -0.125000029802
v -0.000000087423 -1.000000000000 -0.000000043711
v -0.000000084495 -0.966506361961 0.124999955297
v -0.000000076495 -0.875000000000 0.216506302357
v -0.000000065567 -0.750000000000 0.249999970198
v -0.000000054639 -0.625000000000 0.216506317258
v -0.000000046639 -0.533493638039 0.124999977648
v -0.000000043711 -0.500000000000 -0.000000021856
v -0.000000046639 -0.533493638039 -0.125000029802
v -0.000000054639 -0.625000000000 -0.216506376863
v -0.000000065567 -0.750000000000 -0.250000029802
v -0.000000076495 -0.875000000000 -0.216506391764
v -0.000000084495 -0.966506361961 -0.125000044703
v 0.499999821186 -0.866025507450 -0.000000037855
v 0.483253002167 -0.837019145489 0.124999962747
v 0.437499850988 -0.757772326469 0.216506317258
v 0.374999880791 -0.649519145489 0.249999970198
v 0.312499880791 -0.541265964508 0.216506317258
v 0.266746729612 -0.462019085884 0.124999977648
v 0.249999910593 -0.433012753725 -0.000000018928
v 0.266746729612 -0.462019085884 -0.125000014901
v 0.312499880791 -0.541265964508 -0.216506376863
v 0.374999880791 -0.649519145489 -0.250000029802
v 0.437499850988 -0.757772326469 -0.216506376863
v 0.483253002167 -0.837019145489 -0.125000029802
v 0.866025507450 -0.499999850988 -0.000000021856
v 0.837019145489 -0.483253031969 0.124999977648
v 0.757772326469 -0.437499880791 0.216506332159
v 0.649519145489 -0.374999880791 0.249999985099
v 0.541265964508 -0.312499910593 0.216506332159
v 0.462019085884 -0.266746729612 0.124999985099
v 0.433012753725 -0.249999925494 -0.000000010928
v 0.462019085884 -0.266746729612 -0.125000014901
v 0.541265964508 -0.312499910593 -0.216506361961
v 0.649519145489 -0.374999880791 -0.250000029802
v 0.757772326469 -0.437499880791 -0.216506361961
v 0.837019145489 -0.483253031969 -0.125000014901
v 1.000000000000 0.000000075498 0.000000000000
v 0.966506361961 0.000000067505 0.125000000000
v 0.875000000000 0.000000056597 0.216506347060
v 0.750000000000 0.000000045695 0.250000000000
v 0.625000000000 0.000000037722 0.216506347060
v 0.533493638039 0.000000034814 0.125000000000
v 0.500000000000 0.000000037749 0.000000000000
v 0.533493638039 0.000000045742 -0.125000000000
v 0.625000000000 0.000000056650 -0.216506347060
v 0.750000000000 0.000000067551 -0.250000000000
v 0.875000000000 0.000000075525 -0.216506347060
v 0.966506361961 0.000000078433 -0.125000000000
v 0.866025447845 0.499999970198 0.000000021856
v 0.837019085884 0.483253151178 0.125000014901
v 0.757772266865 0.437499970198 0.216506361961
v 0.649519085884 0.374999970198 0.250000029802
v 0.541265904903 0.312499970198 0.216506361961
v 0.462019056082 0.266746789217 0.125000014901
v 0.433012723923 0.249999985099 0.000000010928
v 0.462019056082 0.266746789217 -0.124999985099
v 0.541265904903 0.312499970198 -0.216506332159
v 0.649519085884 0.374999970198 -0.249999985099
v 0.757772266865 0.437499970198 -0.216506332159
v 0.837019085884 0.483253151178 -0.124999977648
v 0.500000119209 0.866025328636 0.000000037855
v 0.483253300190 0.837018966675 0.125000029802
v 0.437500119209 0.757772147655 0.216506376863
v 0.375000089407 0.649518966675 0.250000029802
v 0.312500059605 0.541265845299 0.216506376863
v 0.266746878624 0.462018996477 0.125000014901
v 0.250000059605 0.433012664318 0.000000018928
v 0.266746878624 0.462018996477 -0.124999977648
v 0.312500059605 0.541265845299 -0.216506317258
v 0.375000089407 0.649518966675 -0.249999970198
v 0.437500119209 0.757772147655 -0.216506317258
v 0.483253300190 0.837018966675 -0.124999962747
vn -0.0000 1.0000 -0.0000
vn -0.4380 0.7586 0.4823
vn -0.0000 0.8760 0.4823
vn -0.2654 0.4598 0.8474
vn -0.0000 0.5309 0.8474
vn -0.0215 0.0373 0.9991
vn -0.0000 0.0431 0.9991
vn 0.2332 -0.4039 0.8846
vn 0.0000 -0.4664 0.8846
vn 0.4273 -0.7400 0.5195
vn -0.0000 -0.8545 0.5195
vn 0.5000 -0.8660 0.0000
vn -0.0000 -1.0000 0.0000
vn 0.4273 -0.7400 -0.5195
vn 0.0000 -0.8545 -0.5195
vn 0.2332 -0.4039 -0.8846
vn 0.0000 -0.4664 -0.8846
vn -0.0215 0.0373 -0.9991
vn 0.0000 0.0431 -0.9991
vn -0.2655 0.4598 -0.8474
vn 0.0000 0.5309 -0.8474
vn -0.4380 0.7586 -0.4823
vn 0.0000 0.8760 -0.4823
vn -0.5000 0.8660 -0.0000
vn -0.7586 0.4380 0.4823
vn -0.4598 0.2654 0.8474
vn -0.0373 0.0215 0.9991
vn 0.4039 -0.2332 0.8846
vn 0.7400 -0.4272 0.5195
vn 0.8660 -0.5000 -0.0000
vn 0.7400 -0.4272 -0.5195
vn 0.4039 -0.2332 -0.8846
vn -0.0373 0.0215 -0.9991
vn -0.4598 0.2654 -0.8474
vn -0.7586 0.4380 -0.4823
vn -0.8660 0.5000 0.0000
vn -0.8760 0.0000 0.4823
vn -0.5309 0.0000 0.8474
vn -0.0431 -0.0000 0.9991
vn 0.4664 -0.0000 0.8846
vn 0.8545 -0.0000 0.5195
vn 1.0000 0.0000 -0.0000
vn 0.8545 0.0000 -0.5195
vn 0.4664 -0.0000 -0.8846
vn -0.0431 0.0000 -0.9991
vn -0.5309 0.0000 -0.8474
vn -0.8760 0.0000 -0.4823
vn -1.0000 0.0000 0.0000
vn -0.7586 -0.4380 0.4823
vn -0.4598 -0.2655 0.8474
vn -0.0373 -0.0215 0.9991
vn 0.4039 0.2332 0.8846
vn 0.7400 0.4272 0.5195
vn 0.8660 0.5000 0.0000
vn 0.7400 0.4272 -0.5195
vn 0.4039 0.2332 -0.8846
vn -0.0373 -0.0215 -0.9991
vn -0.4598 -0.2654 -0.8474
vn -0.7586 -0.4380 -0.4823
vn -0.8660 -0.5000 0.0000
vn -0.4380 -0.7586 0.4823
vn -0.2654 -0.4598 0.8474
vn -0.0215 -0.0373 0.9991
vn 0.2332 0.4039 0.8846
vn 0.4273 0.7400 0.5195
vn 0.5000 0.8660 0.0000
vn 0.4273 0.7400 -0.5195
vn 0.2332 0.4039 -0.8846
vn -0.0215 -0.0373 -0.9991
vn -0.2655 -0.4598 -0.8474
vn -0.4380 -0.7586 -0.4823
vn -0.5000 -0.8660 0.0000
vn -0.0000 -0.8760 0.4823
vn -0.0000 -0.5309 0.8474
vn -0.0000 -0.0431 0.9991
vn 0.0000 0.4664 0.8846
vn 0.0000 0.8545 0.5195
vn 0.0000 0.8545 -0.5195
vn 0.0000 0.4664 -0.8846
vn -0.0000 -0.0431 -0.9991
vn -0.0000 -0.5309 -0.8474
vn -0.0000 -0.8760 -0.4823
vn 0.4380 -0.7586 0.4823
vn 0.2655 -0.4598 0.8474
vn 0.0215 -0.0373 0.9991
vn -0.2332 0.4039 0.8846
vn -0.4272 0.7400 0.5195
vn -0.4272 0.7400 -0.5195
vn -0.2332 0.4039 -0.8846
vn 0.0215 -0.0373 -0.9991
vn 0.2654 -0.4598 -0.8474
vn 0.4380 -0.7586 -0.4823
vn 0.7586 -0.4380 0.4823
vn 0.4598 -0.2655 0.8474
vn 0.0373 -0.0215 0.9991
vn -0.4039 0.2332 0.8846
vn -0.7400 0.4272 0.5195
vn -0.7400 0.4272 -0.5195
vn -0.4039 0.2332 -0.8846
vn 0.0373 -0.0215 -0.9991
vn 0.4598 -0.2654 -0.8474
vn 0.7586 -0.4380 -0.4823
vn 0.8760 -0.0000 0.4823
vn 0.5309 -0.0000 0.8474
vn 0.0431 -0.0000 0.9991
vn -0.4664 -0.0000 0.8846
vn -0.8545 0.0000 0.5195
vn -0.8545 -0.0000 -0.5195
vn -0.4664 -0.0000 -0.8846
vn 0.0431 0.0000 -0.9991
vn 0.5309 0.0000 -0.8474
vn 0.8760 0.0000 -0.4823
vn 0.7586 0.4380 0.4823
vn 0.4598 0.2654 0.8474
vn 0.0373 0.0215 0.9991
vn -0.4039 -0.2332 0.8846
vn -0.7400 -0.4272 0.5195
vn -0.7400 -0.4272 -0.5195
vn -0.4039 -0.2332 -0.8846
vn 0.0373 0.0215 -0.9991
vn 0.4598 0.2654 -0.8474
vn 0.7586 0.4380 -0.4823
vn 0.4380 0.7586 0.4823
vn 0.2655 0.4598 0.8474
vn 0.0215 0.0373 0.9991
vn -0.2332 -0.4039 0.8846
vn -0.4272 -0.7400 0.5195
vn -0.4273 -0.7400 -0.5195
vn -0.2332 -0.4039 -0.8846
vn 0.0215 0.0373 -0.9991
vn 0.2654 0.4598 -0.8474
vn 0.4380 0.7586 -0.4823
usemtl Default_OBJ
s 1
f 1//1 3//2 4//3
f 4//3 5//4 6//5
f 6//5 7//6 8//7
f 8//7 9//8 10//9
f 10//9 11//10 12//11
f 12//11 13//12 14//13
f 14//13 15//14 16//15
f 16//15 17//16 18//17
f 18//17 19//18 20//19
f 20//19 21//20 22//21
f 22//21 23//22 24//23
f 24//23 2//24 1//1
f 2//24 26//25 3//2
f 3//2 27//26 5//4
f 5//4 28//27 7//6
f 7//6 29//28 9//8
f 9//8 30//29 11//10
f 11//10 31//30 13//12
f 13//12 32//31 15//14
f 15//14 33//32 17//16
f 17//16 34//33 19//18
f 19//18 35//34 21//20
f 21//20 36//35 23//22
f 23//22 25//36 2//24
f 25//36 38//37 26//25
f 26//25 39//38 27//26
f 27//26 40//39 28//27
f 28//27 41//40 29//28
f 29//28 42//41 30//29
f 30//29 43//42 31//30
f 31//30 44//43 32//31
f 32//31 45//44 33//32
f 33//32 46//45 34//33
f 34//33 47//46 35//34
f 35//34 48//47 36//35
f 36//35 37//48 25//36
f 37//48 50//49 38//37
f 38//37 51//50 39//38
f 39//38 52//51 40//39
f 40//39 53//52 41//40
f 41//40 54//53 42//41
f 42//41 55//54 43//42
f 43//42 56//55 44//43
f 44//43 57//56 45//44
f 45//44 58//57 46//45
f 46//45 59//58 47//46
f 47//46 60//59 48//47
f 48//47 49//60 37//48
f 49//60 62//61 50//49
f 50//49 63//62 51//50
f 51//50 64//63 52//51
f 52//51 65//64 53//52
f 53//52 66//65 54//53
f 54//53 67//66 55//54
f 55//54 68//67 56//55
f 56//55 69//68 57//56
f 57//56 70//69 58//57
f 58//57 71//70 59//58
f 59//58 72//71 60//59
f 60//59 61//72 49//60
f 61//72 74//73 62//61
f 62//61 75//74 63//62
f 63//62 76//75 64//63
f 64//63 77//76 65//64
f 65//64 78//77 66//65
f 66//65 79//1 67//66
f 67//66 80//78 68//67
f 68//67 81//79 69//68
f 69//68 82//80 70//69
f 70//69 83//81 71//70
f 71//70 84//82 72//71
f 72//71 73//13 61//72
f 73//13 86//83 74//73
f 74//73 87//84 75//74
f 75//74 88//85 76//75
f 76//75 89//86 77//76
f 77//76 90//87 78//77
f 78//77 91//24 79//1
f 79//1 92//88 80//78
f 80//78 93//89 81//79
f 81//79 94//90 82//80
f 82//80 95//91 83//81
f 83//81 96//92 84//82
f 84//82 85//12 73//13
f 85//12 98//93 86//83
f 86//83 99//94 87//84
f 87//84 100//95 88//85
f 88//85 101//96 89//86
f 89//86 102//97 90//87
f 90//87 103//36 91//24
f 91//24 104//98 92//88
f 92//88 105//99 93//89
f 93//89 106//100 94//90
f 94//90 107//101 95//91
f 95//91 108//102 96//92
f 96//92 97//30 85//12
f 97//30 110//103 98//93
f 98//93 111//104 99//94
f 99//94 112//105 100//95
f 100//95 113//106 101//96
f 101//96 114//107 102//97
f 102//97 115//48 103//36
f 103//36 116//108 104//98
f 104//98 117//109 105//99
f 105//99 118//110 106//100
f 106//100 119//111 107//101
f 107//101 120//112 108//102
f 108//102 109//42 97//30
f 109//42 122//113 110//103
f 110//103 123//114 111//104
f 111//104 124//115 112//105
f 112//105 125//116 113//106
f 113//106 126//117 114//107
f 114//107 127//60 115//48
f 115//48 128//118 116//108
f 116//108 129//119 117//109
f 117//109 130//120 118//110
f 118//110 131//121 119//111
f 119//111 132//122 120//112
f 120//112 121//54 109//42
f 121//54 134//123 122//113
f 122//113 135//124 123//114
f 123//114 136//125 124//115
f 124//115 137//126 125//116
f 125//116 138//127 126//117
f 126//117 139//72 127//60
f 127//60 140//128 128//118
f 128//118 141//129 129//119
f 129//119 142//130 130//120
f 130//120 143//131 131//121
f 131//121 144//132 132//122
f 132//122 133//66 121//54
f 133//66 4//3 134//123
f 134//123 6//5 135//124
f 135//124 8//7 136//125
f 136//125 10//9 137//126
f 137//126 12//11 138//127
f 138//127 14//13 139//72
f 139//72 16//15 140//128
f 140//128 18//17 141//129
f 141//129 20//19 142//130
f 142//130 22//21 143//131
f 143//131 24//23 144//132
f 144//132 1//1 133//66
f 1//1 2//24 3//2
f 4//3 3//2 5//4
f 6//5 5//4 7//6
f 8//7 7//6 9//8
f 10//9 9//8 11//10
f 12//11 11//10 13//12
f 14//13 13//12 15//14
f 16//15 15//14 17//16
f 18//17 17//16 19//18
f 20//19 19//18 21//20
f 22//21 21//20 23//22
f 24//23 23//22 2//24
f 2//24 25//36 26//25
f 3//2 26//25 27//26
f 5//4 27//26 28//27
f 7//6 28//27 29//28
f 9//8 29//28 30//29
f 11//10 30//29 31//30
f 13//12 31//30 32//31
f 15//14 32//31 33//32
f 17//16 33//32 34//33
f 19//18 34//33 35//34
f 21//20 35//34 36//35
f 23//22 36//35 25//36
f 25//36 37//48 38//37
f 26//25 38//37 39//38
f 27//26 39//38 40//39
f 28//27 40//39 41//40
f 29//28 41//40 42//41
f 30//29 42//41 43//42
f 31//30 43//42 44//43
f 32//31 44//43 45//44
f 33//32 45//44 46//45
f 34//33 46//45 47//46
f 35//34 47//46 48//47
f 36//35 48//47 37//48
f 37//48 49//60 50//49
f 38//37 50//49 51//50
f 39//38 51//50 52//51
f 40//39 52//51 53//52
f 41//40 53//52 54//53
f 42//41 54//53 55//54
f 43//42 55//54 56//55
f 44//43 56//55 57//56
f 45//44 57//56 58//57
f 46//45 58//57 59//58
f 47//46 59//58 60//59
f 48//47 60//59 49//60
f 49//60 61//72 62//61
f 50//49 62//61 63//62
f 51//50 63//62 64//63
f 52//51 64//63 65//64
f 53//52 65//64 66//65
f 54//53 66//65 67//66
f 55//54 67//66 68//67
f 56//55 68//67 69//68
f 57//56 69//68 70//69
f 58//57 70//69 71//70
f 59//58 71//70 72//71
f 60//59 72//71 61//72
f 61//72 73//13 74//73
f 62//61 74//73 75//74
f 63//62 75//74 76//75
f 64//63 76//75 77//76
f 65//64 77//76 78//77
f 66//65 78//77 79//1
f 67//66 79//1 80//78
f 68//67 80//78 81//79
f 69//68 81//79 82//80
f 70//69 82//80 83//81
f 71//70 83//81 84//82
f 72//71 84//82 73//13
f 73//13 85//12 86//83
f 74//73 86//83 87//84
f 75//74 87//84 88//85
f 76//75 88//85 89//86
f 77//76 89//86 90//87
f 78//77 90//87 91//24
f 79//1 91//24 92//88
f 80//78 92//88 93//89
f 81//79 93//89 94//90
f 82//80 94//90 95//91
f 83//81 95//91 96//92
f 84//82 96//92 85//12
f 85//12 97//30 98//93
f 86//83 98//93 99//94
f 87//84 99//94 100//95
f 88//85 100//95 101//96
f 89//86 101//96 102//97
f 90//87 102//97 103//36
f 91//24 103//36 104//98
f 92//88 104//98 105//99
f 93//89 105//99 106//100
f 94//90 106//100 107//101
f 95//91 107//101 108//102
f 96//92 108//102 97//30
f 97//30 109//42 110//103
f 98//93 110//103 111//104
f 99//94 111//104 112//105
f 100//95 112//105 113//106
f 101//96 113//106 114//107
f 102//97 114//107 115//48
f 103//36 115//48 116//108
f 104//98 116//108 117//109
f 105//99 117//109 118//110
f 106//100 118//110 119//111
f 107//101 119//111 120//112
f 108//102 120//112 109//42
f 109//42 121//54 122//113
f 110//103 122//113 123//114
f 111//104 123//114 124//115
f 112//105 124//115 125//116
f 113//106 125//116 126//117
f 114//107 126//117 127//60
f 115//48 127//60 128//118
f 116//108 128//118 129//119
f 117//109 129//119 130//120
f 118//110 130//120 131//121
f 119//111 131//121 132//122
f 120//112 132//122 121//54
f 121//54 133//66 134//123
f 122//113 134//123 135//124
f 123//114 135//124 136//125
f 124//115 136//125 137//126
f 125//116 137//126 138//127
f 126//117 138//127 139//72
f 127//60 139//72 140//128
f 128//118 140//128 141//129
f 129//119 141//129 142//130
f 130//120 142//130 143//131
f 131//121 143//131 144//132
f 132//122 144//132 133//66
f 133//66 1//1 4//3
f 134//123 4//3 6//5
f 135//124 6//5 8//7
f 136//125 8//7 10//9
f 137//126 10//9 12//11
f 138//127 12//11 14//13
f 139//72 14//13 16//15
f 140//128 16//15 18//17
f 141//129 18//17 20//19
f 142//130 20//19 22//21
f 143//131 22//21 24//23
f 144//132 24//23 1//1
