# Blender v2.83.0 OBJ File: ''
# www.blender.org
mtllib rotated.mtl
o Sphere_Sphere.002
v 0.000000 0.000000 -1.000000
v 0.000000 0.500000 -0.866025
v 0.191342 0.461940 -0.866025
v 0.000000 0.866025 -0.500000
v 0.382683 0.923880 0.000000
v 0.331414 0.800103 -0.500000
v 0.000000 0.500000 0.866025
v 0.331414 0.800103 0.500000
v 0.000000 0.866025 0.500000
v 0.000000 1.000000 0.000000
v 0.000000 -0.000000 1.000000
v 0.191342 0.461940 0.866025
v 0.612372 0.612372 0.500000
v 0.353553 0.353553 -0.866025
v 0.707107 0.707107 0.000000
v 0.353553 0.353553 0.866025
v 0.612372 0.612372 -0.500000
v 0.800103 0.331414 -0.500000
v 0.461940 0.191342 -0.866025
v 0.923879 0.382683 0.000000
v 0.461940 0.191342 0.866025
v 0.800103 0.331414 0.500000
v 0.500000 0.000000 -0.866025
v 1.000000 0.000000 0.000000
v 0.500000 -0.000000 0.866025
v 0.866025 0.000000 -0.500000
v 0.866025 -0.000000 0.500000
v 0.461940 -0.191342 -0.866025
v 0.923879 -0.382683 -0.000000
v 0.461940 -0.191342 0.866025
v 0.800103 -0.331414 -0.500000
v 0.800103 -0.331414 0.500000
v 0.353553 -0.353553 -0.866025
v 0.707106 -0.707107 -0.000000
v 0.353553 -0.353553 0.866025
v 0.612372 -0.612372 -0.500000
v 0.612372 -0.612372 0.500000
v 0.382683 -0.923879 -0.000000
v 0.191342 -0.461939 0.866025
v 0.191342 -0.461940 -0.866025
v 0.331413 -0.800103 -0.500000
v 0.331413 -0.800103 0.500000
v 0.000000 -0.500000 0.866025
v 0.000000 -0.500000 -0.866025
v 0.000000 -0.866025 -0.500000
v 0.000000 -0.866025 0.500000
v 0.000000 -1.000000 -0.000000
v -0.191342 -0.461939 -0.866025
v -0.331414 -0.800103 -0.500000
v -0.331414 -0.800103 0.500000
v -0.382684 -0.923879 -0.000000
v -0.191342 -0.461939 0.866025
v -0.353553 -0.353553 -0.866025
v -0.612372 -0.612372 -0.500000
v -0.612372 -0.612372 0.500000
v -0.707107 -0.707106 -0.000000
v -0.353553 -0.353553 0.866025
v -0.461940 -0.191341 -0.866025
v -0.800103 -0.331413 -0.500000
v -0.800103 -0.331413 0.500000
v -0.923879 -0.382683 -0.000000
v -0.461940 -0.191341 0.866025
v -0.866025 0.000000 -0.500000
v -0.500000 -0.000000 0.866025
v -0.866025 -0.000000 0.500000
v -0.500000 0.000000 -0.866025
v -1.000000 0.000001 0.000000
v -0.800103 0.331414 0.500000
v -0.800103 0.331414 -0.500000
v -0.461940 0.191342 -0.866025
v -0.923879 0.382684 0.000000
v -0.461939 0.191342 0.866025
v -0.353553 0.353554 -0.866025
v -0.612372 0.612373 0.500000
v -0.707106 0.707107 0.000000
v -0.353553 0.353554 0.866025
v -0.612372 0.612373 -0.500000
v -0.191341 0.461940 -0.866025
v -0.331413 0.800103 0.500000
v -0.382683 0.923880 0.000000
v -0.191341 0.461940 0.866025
v -0.331413 0.800103 -0.500000
vt 0.718750 0.000000
vt 0.750000 0.166667
vt 0.687500 0.166667
vt 0.750000 0.333333
vt 0.687500 0.500000
vt 0.687500 0.333333
vt 0.750000 0.833333
vt 0.687500 0.666667
vt 0.750000 0.666667
vt 0.750000 0.500000
vt 0.718750 1.000000
vt 0.687500 0.833333
vt 0.625000 0.666667
vt 0.625000 0.166667
vt 0.625000 0.500000
vt 0.656250 1.000000
vt 0.625000 0.833333
vt 0.656250 0.000000
vt 0.625000 0.333333
vt 0.562500 0.333333
vt 0.562500 0.166667
vt 0.562500 0.500000
vt 0.593750 1.000000
vt 0.562500 0.833333
vt 0.593750 0.000000
vt 0.562500 0.666667
vt 0.500000 0.166667
vt 0.500000 0.500000
vt 0.531250 1.000000
vt 0.500000 0.833333
vt 0.531250 0.000000
vt 0.500000 0.333333
vt 0.500000 0.666667
vt 0.437500 0.166667
vt 0.437500 0.500000
vt 0.468750 1.000000
vt 0.437500 0.833333
vt 0.468750 0.000000
vt 0.437500 0.333333
vt 0.437500 0.666667
vt 0.375000 0.166667
vt 0.375000 0.500000
vt 0.406250 1.000000
vt 0.375000 0.833333
vt 0.406250 0.000000
vt 0.375000 0.333333
vt 0.375000 0.666667
vt 0.312500 0.500000
vt 0.343750 1.000000
vt 0.312500 0.833333
vt 0.343750 0.000000
vt 0.312500 0.166667
vt 0.312500 0.333333
vt 0.312500 0.666667
vt 0.281250 1.000000
vt 0.250000 0.833333
vt 0.281250 0.000000
vt 0.250000 0.166667
vt 0.250000 0.333333
vt 0.250000 0.666667
vt 0.250000 0.500000
vt 0.218750 0.000000
vt 0.187500 0.166667
vt 0.187500 0.333333
vt 0.187500 0.666667
vt 0.187500 0.500000
vt 0.218750 1.000000
vt 0.187500 0.833333
vt 0.156250 0.000000
vt 0.125000 0.166667
vt 0.125000 0.333333
vt 0.125000 0.666667
vt 0.125000 0.500000
vt 0.156250 1.000000
vt 0.125000 0.833333
vt 0.093750 0.000000
vt 0.062500 0.166667
vt 0.062500 0.333333
vt 0.062500 0.666667
vt 0.062500 0.500000
vt 0.093750 1.000000
vt 0.062500 0.833333
vt 0.000000 0.333333
vt 0.000000 0.833333
vt 0.000000 0.666667
vt 0.000000 0.166667
vt 0.000000 0.500000
vt 0.031250 1.000000
vt 0.031250 0.000000
vt 1.000000 0.833333
vt 0.937500 0.666667
vt 1.000000 0.666667
vt 1.000000 0.166667
vt 0.937500 0.333333
vt 0.937500 0.166667
vt 1.000000 0.500000
vt 0.937500 0.500000
vt 0.968750 1.000000
vt 0.937500 0.833333
vt 0.968750 0.000000
vt 1.000000 0.333333
vt 0.875000 0.166667
vt 0.875000 0.666667
vt 0.875000 0.500000
vt 0.906250 1.000000
vt 0.875000 0.833333
vt 0.906250 0.000000
vt 0.875000 0.333333
vt 0.812500 0.166667
vt 0.812500 0.666667
vt 0.812500 0.500000
vt 0.843750 1.000000
vt 0.812500 0.833333
vt 0.843750 0.000000
vt 0.812500 0.333333
vt 0.781250 1.000000
vt 0.781250 0.000000
vn 0.0514 0.2585 -0.9646
vn 0.1887 0.9486 -0.2542
vn 0.1393 0.7002 0.7002
vn 0.1393 0.7002 -0.7002
vn 0.1887 0.9486 0.2542
vn 0.0514 0.2585 0.9646
vn 0.3966 0.5936 0.7002
vn 0.3966 0.5936 -0.7002
vn 0.5373 0.8042 0.2542
vn 0.1464 0.2191 0.9646
vn 0.1464 0.2191 -0.9646
vn 0.5373 0.8042 -0.2542
vn 0.5936 0.3966 -0.7002
vn 0.8042 0.5373 0.2542
vn 0.2191 0.1464 0.9646
vn 0.2191 0.1464 -0.9646
vn 0.8042 0.5373 -0.2542
vn 0.5936 0.3966 0.7002
vn 0.7002 0.1393 -0.7002
vn 0.9486 0.1887 0.2542
vn 0.2585 0.0514 0.9646
vn 0.2585 0.0514 -0.9646
vn 0.9486 0.1887 -0.2542
vn 0.7002 0.1393 0.7002
vn 0.7002 -0.1393 -0.7002
vn 0.9486 -0.1887 0.2542
vn 0.2585 -0.0514 0.9646
vn 0.2585 -0.0514 -0.9646
vn 0.9486 -0.1887 -0.2542
vn 0.7002 -0.1393 0.7002
vn 0.5936 -0.3966 -0.7002
vn 0.8042 -0.5373 0.2542
vn 0.2191 -0.1464 0.9646
vn 0.2191 -0.1464 -0.9646
vn 0.8042 -0.5373 -0.2542
vn 0.5936 -0.3966 0.7002
vn 0.5373 -0.8042 0.2542
vn 0.1464 -0.2191 0.9646
vn 0.1464 -0.2191 -0.9646
vn 0.5373 -0.8042 -0.2542
vn 0.3966 -0.5936 0.7002
vn 0.3966 -0.5936 -0.7002
vn 0.0514 -0.2585 0.9646
vn 0.0514 -0.2585 -0.9646
vn 0.1887 -0.9486 -0.2542
vn 0.1393 -0.7002 0.7002
vn 0.1393 -0.7002 -0.7002
vn 0.1887 -0.9486 0.2542
vn -0.0514 -0.2585 -0.9646
vn -0.1887 -0.9486 -0.2542
vn -0.1393 -0.7002 0.7002
vn -0.1393 -0.7002 -0.7002
vn -0.1887 -0.9486 0.2542
vn -0.0514 -0.2585 0.9646
vn -0.1464 -0.2191 -0.9646
vn -0.5373 -0.8042 -0.2542
vn -0.3966 -0.5936 0.7002
vn -0.3966 -0.5936 -0.7002
vn -0.5373 -0.8042 0.2542
vn -0.1464 -0.2191 0.9646
vn -0.2191 -0.1464 -0.9646
vn -0.8042 -0.5373 -0.2542
vn -0.5936 -0.3966 0.7002
vn -0.5936 -0.3966 -0.7002
vn -0.8042 -0.5373 0.2542
vn -0.2191 -0.1464 0.9646
vn -0.9486 -0.1887 -0.2542
vn -0.7002 -0.1393 0.7002
vn -0.7002 -0.1393 -0.7002
vn -0.9486 -0.1887 0.2542
vn -0.2585 -0.0514 0.9646
vn -0.2585 -0.0514 -0.9646
vn -0.7002 0.1393 0.7002
vn -0.7002 0.1393 -0.7002
vn -0.9486 0.1887 0.2542
vn -0.2585 0.0514 0.9646
vn -0.2585 0.0514 -0.9646
vn -0.9486 0.1887 -0.2542
vn -0.5936 0.3966 -0.7002
vn -0.8042 0.5373 0.2542
vn -0.2191 0.1464 0.9646
vn -0.2191 0.1464 -0.9646
vn -0.8042 0.5373 -0.2542
vn -0.5936 0.3966 0.7002
vn -0.3966 0.5936 -0.7002
vn -0.5373 0.8042 0.2542
vn -0.1464 0.2191 0.9646
vn -0.1464 0.2191 -0.9646
vn -0.5373 0.8042 -0.2542
vn -0.3966 0.5936 0.7002
vn -0.1393 0.7002 -0.7002
vn -0.1887 0.9486 0.2542
vn -0.0514 0.2585 0.9646
vn -0.0514 0.2585 -0.9646
vn -0.1887 0.9486 -0.2542
vn -0.1393 0.7002 0.7002
usemtl None
s 1
f 1/1/1 2/2/1 3/3/1
f 4/4/2 5/5/2 6/6/2
f 7/7/3 8/8/3 9/9/3
f 4/4/4 3/3/4 2/2/4
f 9/9/5 5/5/5 10/10/5
f 7/7/6 11/11/6 12/12/6
f 12/12/7 13/13/7 8/8/7
f 6/6/8 14/14/8 3/3/8
f 8/8/9 15/15/9 5/5/9
f 12/12/10 11/16/10 16/17/10
f 1/18/11 3/3/11 14/14/11
f 6/6/12 15/15/12 17/19/12
f 14/14/13 18/20/13 19/21/13
f 13/13/14 20/22/14 15/15/14
f 16/17/15 11/23/15 21/24/15
f 1/25/16 14/14/16 19/21/16
f 17/19/17 20/22/17 18/20/17
f 16/17/18 22/26/18 13/13/18
f 18/20/19 23/27/19 19/21/19
f 22/26/20 24/28/20 20/22/20
f 21/24/21 11/29/21 25/30/21
f 1/31/22 19/21/22 23/27/22
f 20/22/23 26/32/23 18/20/23
f 21/24/24 27/33/24 22/26/24
f 26/32/25 28/34/25 23/27/25
f 27/33/26 29/35/26 24/28/26
f 25/30/27 11/36/27 30/37/27
f 1/38/28 23/27/28 28/34/28
f 26/32/29 29/35/29 31/39/29
f 25/30/30 32/40/30 27/33/30
f 31/39/31 33/41/31 28/34/31
f 32/40/32 34/42/32 29/35/32
f 30/37/33 11/43/33 35/44/33
f 1/45/34 28/34/34 33/41/34
f 31/39/35 34/42/35 36/46/35
f 30/37/36 37/47/36 32/40/36
f 37/47/37 38/48/37 34/42/37
f 35/44/38 11/49/38 39/50/38
f 1/51/39 33/41/39 40/52/39
f 34/42/40 41/53/40 36/46/40
f 35/44/41 42/54/41 37/47/41
f 36/46/42 40/52/42 33/41/42
f 39/50/43 11/55/43 43/56/43
f 1/57/44 40/52/44 44/58/44
f 38/48/45 45/59/45 41/53/45
f 39/50/46 46/60/46 42/54/46
f 41/53/47 44/58/47 40/52/47
f 38/48/48 46/60/48 47/61/48
f 1/62/49 44/58/49 48/63/49
f 47/61/50 49/64/50 45/59/50
f 43/56/51 50/65/51 46/60/51
f 44/58/52 49/64/52 48/63/52
f 47/61/53 50/65/53 51/66/53
f 43/56/54 11/67/54 52/68/54
f 1/69/55 48/63/55 53/70/55
f 51/66/56 54/71/56 49/64/56
f 52/68/57 55/72/57 50/65/57
f 49/64/58 53/70/58 48/63/58
f 51/66/59 55/72/59 56/73/59
f 52/68/60 11/74/60 57/75/60
f 1/76/61 53/70/61 58/77/61
f 56/73/62 59/78/62 54/71/62
f 57/75/63 60/79/63 55/72/63
f 54/71/64 58/77/64 53/70/64
f 56/73/65 60/79/65 61/80/65
f 57/75/66 11/81/66 62/82/66
f 61/80/67 63/83/67 59/78/67
f 60/79/68 64/84/68 65/85/68
f 59/78/69 66/86/69 58/77/69
f 60/79/70 67/87/70 61/80/70
f 62/82/71 11/88/71 64/84/71
f 1/89/72 58/77/72 66/86/72
f 64/90/73 68/91/73 65/92/73
f 66/93/74 69/94/74 70/95/74
f 67/96/75 68/91/75 71/97/75
f 64/90/76 11/98/76 72/99/76
f 1/100/77 66/93/77 70/95/77
f 67/96/78 69/94/78 63/101/78
f 69/94/79 73/102/79 70/95/79
f 71/97/80 74/103/80 75/104/80
f 72/99/81 11/105/81 76/106/81
f 1/107/82 70/95/82 73/102/82
f 71/97/83 77/108/83 69/94/83
f 72/99/84 74/103/84 68/91/84
f 77/108/85 78/109/85 73/102/85
f 75/104/86 79/110/86 80/111/86
f 76/106/87 11/112/87 81/113/87
f 1/114/88 73/102/88 78/109/88
f 75/104/89 82/115/89 77/108/89
f 76/106/90 79/110/90 74/103/90
f 82/115/91 2/2/91 78/109/91
f 80/111/92 9/9/92 10/10/92
f 81/113/93 11/116/93 7/7/93
f 1/117/94 78/109/94 2/2/94
f 82/115/95 10/10/95 4/4/95
f 81/113/96 9/9/96 79/110/96
f 4/4/2 10/10/2 5/5/2
f 7/7/3 12/12/3 8/8/3
f 4/4/4 6/6/4 3/3/4
f 9/9/5 8/8/5 5/5/5
f 12/12/7 16/17/7 13/13/7
f 6/6/8 17/19/8 14/14/8
f 8/8/9 13/13/9 15/15/9
f 6/6/12 5/5/12 15/15/12
f 14/14/13 17/19/13 18/20/13
f 13/13/14 22/26/14 20/22/14
f 17/19/17 15/15/17 20/22/17
f 16/17/18 21/24/18 22/26/18
f 18/20/19 26/32/19 23/27/19
f 22/26/20 27/33/20 24/28/20
f 20/22/23 24/28/23 26/32/23
f 21/24/24 25/30/24 27/33/24
f 26/32/25 31/39/25 28/34/25
f 27/33/26 32/40/26 29/35/26
f 26/32/29 24/28/29 29/35/29
f 25/30/30 30/37/30 32/40/30
f 31/39/31 36/46/31 33/41/31
f 32/40/32 37/47/32 34/42/32
f 31/39/35 29/35/35 34/42/35
f 30/37/36 35/44/36 37/47/36
f 37/47/37 42/54/37 38/48/37
f 34/42/40 38/48/40 41/53/40
f 35/44/41 39/50/41 42/54/41
f 36/46/42 41/53/42 40/52/42
f 38/48/45 47/61/45 45/59/45
f 39/50/46 43/56/46 46/60/46
f 41/53/47 45/59/47 44/58/47
f 38/48/48 42/54/48 46/60/48
f 47/61/50 51/66/50 49/64/50
f 43/56/51 52/68/51 50/65/51
f 44/58/52 45/59/52 49/64/52
f 47/61/53 46/60/53 50/65/53
f 51/66/56 56/73/56 54/71/56
f 52/68/57 57/75/57 55/72/57
f 49/64/58 54/71/58 53/70/58
f 51/66/59 50/65/59 55/72/59
f 56/73/62 61/80/62 59/78/62
f 57/75/63 62/82/63 60/79/63
f 54/71/64 59/78/64 58/77/64
f 56/73/65 55/72/65 60/79/65
f 61/80/67 67/87/67 63/83/67
f 60/79/68 62/82/68 64/84/68
f 59/78/69 63/83/69 66/86/69
f 60/79/70 65/85/70 67/87/70
f 64/90/73 72/99/73 68/91/73
f 66/93/74 63/101/74 69/94/74
f 67/96/75 65/92/75 68/91/75
f 67/96/78 71/97/78 69/94/78
f 69/94/79 77/108/79 73/102/79
f 71/97/80 68/91/80 74/103/80
f 71/97/83 75/104/83 77/108/83
f 72/99/84 76/106/84 74/103/84
f 77/108/85 82/115/85 78/109/85
f 75/104/86 74/103/86 79/110/86
f 75/104/89 80/111/89 82/115/89
f 76/106/90 81/113/90 79/110/90
f 82/115/91 4/4/91 2/2/91
f 80/111/92 79/110/92 9/9/92
f 82/115/95 80/111/95 10/10/95
f 81/113/96 7/7/96 9/9/96
